<?xml version="1.0" encoding="UTF-8"?>
<svg id="_圖層_2" data-name="圖層 2" xmlns="http://www.w3.org/2000/svg" viewBox="0 0 25 25">
  <defs>
    <style>
      .cls-1 {
        fill: #545dff;
      }

      .cls-2 {
        fill: #66ffcb;
      }
    </style>
  </defs>
  <rect class="cls-1" width="25" height="25" rx="5" ry="5"/>
  <path class="cls-2" d="m20.15,14.53c-.23-.62-.56-1.16-.98-1.61-.41-.45-.89-.82-1.43-1.09-.55-.28-1.13-.42-1.75-.42h-.18v.04l-6.76-.06c-.74-.14-1.29-.46-1.62-.95-.34-.5-.51-1.13-.51-1.89,0-.86.24-1.58.72-2.13.47-.54,1.2-.82,2.17-.82h10.41v-2.16h-11.15c-.63,0-1.23.13-1.78.37-.55.25-1.04.6-1.45,1.04-.41.44-.74.99-.98,1.61-.23.63-.35,1.33-.35,2.09,0,.68.12,1.34.35,1.95.24.61.56,1.14.98,1.59.41.45.89.82,1.43,1.09.55.28,1.13.42,1.75.42l7.02.08h0c.7.15,1.22.45,1.54.91.34.49.51,1.12.51,1.87,0,.86-.24,1.58-.72,2.13-.47.54-1.2.82-2.17.82H4.78v2.16h11.15c.61,0,1.2-.13,1.76-.37.55-.25,1.04-.6,1.45-1.04.41-.44.75-.98.99-1.61.24-.63.37-1.33.37-2.09,0-.66-.12-1.31-.35-1.93Z"/>
</svg>