<?xml version="1.0" encoding="UTF-8"?>
<svg id="_圖層_2" data-name="圖層 2" xmlns="http://www.w3.org/2000/svg" viewBox="0 0 25 25">
  <defs>
    <style>
      .cls-1 {
        fill: #042d84;
      }

      .cls-2 {
        fill: #fff;
      }

      .cls-3 {
        fill: #77c0eb;
      }

      .cls-4 {
        fill: #939494;
      }
    </style>
  </defs>
  <path class="cls-4" d="m15.27,3.66c-.06-.06-.13-.12-.19-.19-1.16-1.09-2.65-1.64-4.14-1.64s-3.11.59-4.29,1.78c-.56.56-.99,1.2-1.28,1.88-.96,2.22-.53,4.89,1.28,6.7l2.65,2.65.43.43-3.03,3.02-4.29-4.29C-.8,10.81-.8,5.61,2.4,2.41,5.61-.8,10.81-.8,14.01,2.41l1.25,1.26Z"/>
  <path class="cls-2" d="m15.27,3.66c-.06-.06-.13-.12-.19-.19.02.02.05.05.08.07.02.02.05.05.07.07l.04.05Z"/>
  <g>
    <path class="cls-3" d="m9.73,21.34c.06.06.13.12.19.19,1.16,1.09,2.65,1.64,4.14,1.64s3.11-.59,4.29-1.78c.56-.56.99-1.2,1.28-1.88.96-2.22.53-4.89-1.28-6.7l-2.65-2.65-.43-.43,3.03-3.02,4.29,4.29c3.21,3.21,3.21,8.4,0,11.61-3.2,3.21-8.4,3.21-11.61,0l-1.26-1.25Z"/>
    <path class="cls-1" d="m6.43,7.32c0-1.03.31-2.06.92-2.94h0c.18-.25.37-.49.6-.72,2.01-2.01,5.27-2.02,7.3-.02,0,0,0,0,0,0h.01s3.03,3.05,3.03,3.05l-3.03,3.03-2.24-2.24c-.06-.06-.06-.15,0-.21l.74-.74c.07-.07.03-.19-.07-.2l-3.23-.41c-.15-.02-.28.11-.26.26l.4,3.23c.01.1.13.14.2.07l.74-.74c.06-.06.15-.06.21,0l5.27,5.28c1.01,1.01,1.52,2.33,1.52,3.66,0,1.03-.31,2.06-.92,2.94-.17.25-.37.49-.6.72-2.02,2.02-5.3,2.02-7.32,0l-.14-.14-2.89-2.89,3.03-3.03,2.24,2.24c.06.06.06.15,0,.21l-.74.74c-.07.07-.03.19.07.2l3.23.4c.15.02.28-.11.26-.26l-.41-3.23c-.01-.1-.13-.14-.2-.07l-.74.74c-.06.06-.15.06-.21,0l-2.24-2.24-3.03-3.03c-1.01-1.01-1.52-2.33-1.52-3.66Z"/>
  </g>
</svg>