<?xml version="1.0" encoding="UTF-8"?>
<svg id="_圖層_2" data-name="圖層 2" xmlns="http://www.w3.org/2000/svg" xmlns:xlink="http://www.w3.org/1999/xlink" viewBox="0 0 25 25">
  <defs>
    <style>
      .cls-1 {
        fill: url(#_未命名漸層_850);
      }
    </style>
    <linearGradient id="_未命名漸層_850" data-name="未命名漸層 850" x1="12.5" y1=".15" x2="12.5" y2="24.85" gradientUnits="userSpaceOnUse">
      <stop offset="0" stop-color="#66ffcb"/>
      <stop offset=".3" stop-color="#27ffaa"/>
      <stop offset=".52" stop-color="#55ffeb"/>
      <stop offset=".9" stop-color="#2762ff"/>
    </linearGradient>
  </defs>
  <path class="cls-1" d="m22.91,15.26c-.32-.84-.77-1.58-1.33-2.19-.56-.61-1.22-1.11-1.95-1.49-.74-.38-1.54-.57-2.38-.57h-.25v.05l-9.21-.09c-1.01-.19-1.76-.63-2.21-1.29-.46-.68-.69-1.54-.69-2.57,0-1.17.33-2.15.99-2.9.65-.74,1.64-1.12,2.95-1.12h14.17V.15H7.83c-.86,0-1.68.17-2.43.51-.75.34-1.42.81-1.98,1.42-.56.6-1.01,1.34-1.33,2.2-.32.85-.48,1.81-.48,2.84,0,.93.16,1.82.48,2.65.32.83.77,1.56,1.33,2.17.56.61,1.22,1.12,1.95,1.49.74.38,1.54.57,2.38.57l9.57.11h0c.95.2,1.66.61,2.1,1.24.46.67.69,1.53.69,2.55,0,1.17-.33,2.15-.99,2.9-.64.74-1.64,1.12-2.95,1.12H1.99v2.94h15.18c.83,0,1.64-.17,2.39-.51.75-.34,1.42-.81,1.98-1.42.56-.6,1.02-1.34,1.35-2.19.33-.85.5-1.81.5-2.84,0-.91-.16-1.79-.48-2.63Z"/>
</svg>