<?xml version="1.0" encoding="UTF-8"?>
<svg id="_圖層_2" data-name="圖層 2" xmlns="http://www.w3.org/2000/svg" xmlns:xlink="http://www.w3.org/1999/xlink" viewBox="0 0 241.09 58.62">
  <defs>
    <style>
      .cls-1 {
        fill: url(#_未命名漸層_1018-3);
      }

      .cls-2 {
        fill: #042d84;
      }

      .cls-3 {
        fill: #fff;
      }

      .cls-4 {
        fill: url(#_未命名漸層_1018-2);
      }

      .cls-5 {
        fill: #77c0eb;
      }

      .cls-6 {
        fill: url(#_未命名漸層_1018-4);
      }

      .cls-7 {
        fill: url(#_未命名漸層_1018);
      }

      .cls-8 {
        fill: url(#_未命名漸層_1018-5);
      }

      .cls-9 {
        fill: #dcdcdc;
      }

      .cls-10 {
        fill: #939494;
      }

      .cls-11 {
        fill: url(#_未命名漸層_1018-6);
      }
    </style>
    <linearGradient id="_未命名漸層_1018" data-name="未命名漸層 1018" x1="82.86" y1="33.86" x2="82.86" y2="9.77" gradientUnits="userSpaceOnUse">
      <stop offset=".4" stop-color="#77c0eb"/>
      <stop offset=".4" stop-color="#77c0eb"/>
      <stop offset=".68" stop-color="#add4f3"/>
      <stop offset=".89" stop-color="#cfe1f8"/>
      <stop offset="1" stop-color="#dce6fa"/>
    </linearGradient>
    <linearGradient id="_未命名漸層_1018-2" data-name="未命名漸層 1018" x1="111.04" y1="33.76" x2="111.04" y2="9.56" xlink:href="#_未命名漸層_1018"/>
    <linearGradient id="_未命名漸層_1018-3" data-name="未命名漸層 1018" x1="139.15" y1="33.5" x2="139.15" y2="10.2" xlink:href="#_未命名漸層_1018"/>
    <linearGradient id="_未命名漸層_1018-4" data-name="未命名漸層 1018" x1="167.58" y1="33.99" x2="167.58" xlink:href="#_未命名漸層_1018"/>
    <linearGradient id="_未命名漸層_1018-5" data-name="未命名漸層 1018" x1="195.81" x2="195.81" y2="10.1" xlink:href="#_未命名漸層_1018"/>
    <linearGradient id="_未命名漸層_1018-6" data-name="未命名漸層 1018" x1="224.06" y1="33.91" x2="224.06" y2="10" xlink:href="#_未命名漸層_1018"/>
  </defs>
  <g>
    <path class="cls-7" d="m72.31,33.86v-16.73h5.47l-1.57-2.59h-4.72v-2.16h9.96c-.31-.69-.67-1.41-1.08-2.15l3.18-.46c.15.87.26,1.74.33,2.62h10.34v2.16h-4.75l-1.44,2.59h5.36v13.63c0,1.1-.26,1.87-.8,2.34-.54.44-1.46.67-2.8.67-.92,0-1.92-.1-3-.33l-.36-2.31h-8.39v-7.01h9.98v7.01h-.15c.31.02.62.05.92.05.56,0,.98-.08,1.21-.25.23-.18.36-.41.36-.72v-6.75h-4.52c-1.16,0-1.75-.59-1.75-1.74v-2.41h-2.36c-.49,1.36-1.18,2.46-2.05,3.36-.95.92-2.13,1.67-3.59,2.21l-.77-1.1v10.11h-3.03Zm3.03-14.58v3.72c.95-.54,1.7-1.18,2.28-1.87.44-.54.77-1.16,1.03-1.85h-3.31Zm11.09-4.75h-7.11l.95,2.59h5.29l.87-2.59Zm-1.26,11.62h-4.23v2.9h4.23v-2.9Zm5.21-6.88h-3.29v1.69c0,.28.13.41.41.41h2.87v-2.11Z"/>
    <path class="cls-4" d="m117.35,19.95h-12.52v-1.72c-1.51.87-3.08,1.67-4.7,2.36l-1.28-1.87c4.75-2.18,8.73-5.23,11.93-9.16l3,1.15-.77.85c3.08,3,6.5,5.34,10.21,7.06l-1.31,1.9c-1.62-.69-3.13-1.46-4.57-2.31v1.75Zm-15.09,2.82h17.76v10.98h-3.23v-1.95h-11.29v1.95h-3.23v-10.98Zm14.52,2.16h-11.29v4.72h11.29v-4.72Zm-.1-7.14c-2-1.26-3.87-2.67-5.65-4.29-1.75,1.59-3.59,3.03-5.52,4.29h11.16Z"/>
    <path class="cls-1" d="m128.65,13.15c6.75-.59,13.17-1.59,19.25-2.95l1.39,2.57c-3,.54-6.18,1.03-9.52,1.44-1.56,1.28-3,2.39-4.31,3.28l5.44-.64c1-.82,2.08-1.77,3.21-2.87l2.87,1.49c-2.13,1.75-4.13,3.26-6.01,4.57-1.44.95-3.44,2.08-6.03,3.44,1.29-.08,2.54-.18,3.77-.26,2.13-.18,4.26-.41,6.44-.67-.77-.82-1.59-1.64-2.44-2.46l2.67-1.64c1.98,2.39,3.65,4.75,5.06,7.13l-1.9,1.13c-.57-.8-1.16-1.57-1.8-2.34l-5.59.8v5.75c0,.9-.31,1.56-.9,1.97-.62.41-1.64.62-3.08.62-1.2,0-2.31-.1-3.36-.28l-.46-2.39c1.05.15,1.95.23,2.75.23.69,0,1.18-.1,1.44-.31.23-.18.36-.51.39-1v-4.16l-3.9.46,2.05,1.72c-2.03,2.03-4.52,3.62-7.44,4.77l-1.21-1.75c2.44-1.28,4.44-2.85,6-4.67l-3.21.36-.69-2.87c2.08-.87,3.98-1.82,5.67-2.82l1.82-1.15c-2.03.36-3.9.72-5.67,1.05l-.75-2.64c1.03-.49,2.13-1.18,3.34-2.13.46-.41.92-.82,1.41-1.26-1.97.18-4,.31-6.08.44l-.62-1.95Zm16.02,12.4c2.34,1.87,4.41,3.82,6.21,5.8l-1.64,1.49c-1.88-1.77-4.16-3.51-6.83-5.18l2.26-2.1Z"/>
    <path class="cls-6" d="m155.32,32.99c.49-1.72.79-3.77.9-6.21l2.75.36c-.39,2.54-1,4.7-1.8,6.49l-1.85-.64Zm15.55-9.42c0,4.26-1.77,7.72-5.31,10.42l-1.44-1.67c.51-.49,1-1,1.44-1.49l-1.33.31c-.44-1.67-.98-3.21-1.62-4.67l2.49-.69c.44,1.41.75,2.87.97,4.36,1.26-1.87,1.88-4.06,1.88-6.57v-.77c-.67.08-1.31.18-1.93.28l-.64-2.85c.59-.44,1.1-.98,1.54-1.67.44-.69.95-1.64,1.51-2.82l.23-.49h-3.59c-1.82,2.82-3.8,5.44-5.9,7.88l3.31-.8c-.26-.59-.54-1.21-.85-1.85l2.33-.95c.74,2.03,1.28,3.93,1.62,5.67l-1.8.67-.44-1.41-7.03,2-.8-2.51c.85-.64,1.67-1.51,2.41-2.57l1.51-2.23c-1.11.31-2.13.62-3.08.9l-.85-2.7c.49-.31.9-.72,1.26-1.21.39-.51.8-1.21,1.26-2.05.46-.85,1.05-2.28,1.8-4.31l3.08.64c-1.2,2.46-2.49,4.62-3.8,6.44l1.85-.23c.54-.95,1.08-1.95,1.62-2.95l2.46.67v-1.31h4.47c.33-.95.69-2.03,1.1-3.29l3.21.62c-.38.9-.74,1.8-1.13,2.67h6.49v2.21h-7.54c-.9,1.72-1.8,3.31-2.75,4.77l6.18-.38c-.64-.9-1.31-1.77-2.05-2.67l2.72-1.23c1.51,2.39,2.74,4.72,3.74,7.03l-1.9.82c-.36-.64-.74-1.26-1.13-1.9-.33.02-.67.08-.97.13v8.44c0,.46.1.69.33.69h.69c.23,0,.38-.1.51-.28.1-.18.18-.62.21-1.28.03-.67.03-1.46,0-2.36l2.59,1.08c0,.95-.05,1.85-.15,2.69-.13.82-.38,1.46-.77,1.93-.41.46-.98.69-1.69.69h-2.57c-1.39,0-2.08-.67-2.08-2.03v-9.19c-.59.05-1.15.13-1.69.23v1.13Zm-10.19,8.9c-.28-1.97-.72-3.82-1.28-5.59l2.62-.41c.39,1.9.59,3.83.64,5.78l-1.98.23Z"/>
    <path class="cls-8" d="m190.74,33.86h-2.93v-9.01c-1.05,1.77-2.21,3.46-3.41,5.03l-.9-2.26c1.59-2.34,2.87-4.95,3.85-7.8h-3.34v-2.21h3.8v-3.49c-.98.15-1.98.31-3.03.44l-.82-1.9c3-.59,5.85-1.39,8.55-2.39l1.64,2.46c-1.05.31-2.21.59-3.41.87v4h3.51v2.21h-3.51v2.39l1.72-1.26c.8,1.46,1.41,2.93,1.9,4.34l-1.59,1.13c-.54-1.03-1.23-2.05-2.03-3.11v10.55Zm2.77-7.29l8.24-1.41v-15.06h3.13v14.52l2.93-.51.31,2.05-3.23.57v7.03h-3.13v-6.47l-7.78,1.39-.46-2.1Zm5.42-2.64c-1.31-1.31-2.8-2.46-4.41-3.49l2.05-2.1c1.72,1.51,3.03,2.9,3.93,4.16l-1.57,1.44Zm.64-6.88c-1.26-1.34-2.69-2.54-4.26-3.62l2.21-2.05c1.64,1.57,2.87,3,3.69,4.26l-1.64,1.41Z"/>
    <path class="cls-11" d="m218.16,31.4c0,.87-.26,1.51-.8,1.9-.54.38-1.33.59-2.41.59-.85,0-1.62-.05-2.34-.18l-.49-2.49c.64.13,1.23.18,1.77.18.41,0,.72-.08.9-.23.18-.13.28-.31.28-.54v-5.9l-2.59.85-.77-3,3.36-.72v-5.26h-2.98v-2.15h2.98v-4.34h3.08v4.34h2.36v2.15h-2.36v4.49c.9-.23,1.77-.49,2.62-.72l.18,2.08c-.9.38-1.85.77-2.8,1.15v7.8Zm2.93-9.8v-2.16h5.44v-3.95h-5.64v-2.15h5.64v-3.34h3.23v3.34h6.05v2.15h-6.05v3.95h5.03v2.16c-.85,2.52-2.41,4.8-4.65,6.85,1.67,1.28,3.77,2.46,6.26,3.54l-1.08,1.87c-2.72-.9-5.03-2.08-6.95-3.54l-.28-.23c-2.18,1.54-4.75,2.82-7.7,3.82l-1.21-1.98c2.77-1.05,5.06-2.28,6.88-3.65-1.28-1.31-2.62-2.9-4-4.8l2.62-1.62c1.16,1.82,2.26,3.36,3.36,4.59,1.44-1.54,2.49-3.16,3.19-4.88h-10.14Z"/>
  </g>
  <g>
    <path class="cls-9" d="m75.83,42.97c-1.33-.6-1.8-.91-1.96-1.06-.2-.2-.3-.47-.3-.82,0-.41.12-.79.36-1.15.22-.32.65-.49,1.28-.49.52,0,.93.12,1.25.38.33.26.66.77.98,1.53.05.12.2.18.32.13l.29-.11c.1-.04.17-.15.16-.26l-.23-2.34c-.01-.11-.09-.2-.2-.22-.11-.02-.22.03-.27.13-.07.14-.13.2-.16.21-.06.03-.12.05-.19.05s-.25-.02-.65-.18c-.37-.14-.77-.22-1.18-.22-.95,0-1.69.29-2.21.85-.52.56-.78,1.16-.78,1.8,0,.8.22,1.4.65,1.79.4.36,1.12.77,2.18,1.24.73.33,1.27.67,1.61,1.01.31.31.47.63.47.94,0,.66-.14,1.16-.43,1.5-.28.33-.69.48-1.27.48s-1.04-.16-1.48-.49c-.43-.33-.78-.95-1.03-1.84-.02-.07-.06-.12-.12-.15-.06-.03-.13-.04-.2-.02l-.34.11c-.12.04-.19.16-.17.28l.46,2.8c.01.09.07.16.15.19.03.01.06.02.09.02.05,0,.11-.02.15-.05.15-.11.28-.2.39-.28.07-.05.14-.07.21-.07.11,0,.31.03.68.18.35.15.74.22,1.15.22.98,0,1.75-.3,2.27-.88.52-.58.78-1.25.78-2,0-.71-.22-1.33-.66-1.85-.42-.5-1.12-.96-2.06-1.35Z"/>
    <path class="cls-9" d="m86.34,47.01h-.29c-.14,0-.25.11-.25.25,0,.27-.03.47-.09.61-.04.08-.08.11-.17.11-.07,0-.11,0-.12,0-.01-.04-.03-.14-.03-.38v-3.77c0-.61-.23-1.09-.67-1.43-.42-.32-1.05-.48-1.87-.48-.77,0-1.43.17-1.96.49-.57.35-.86.75-.86,1.18,0,.26.07.47.21.6.14.14.33.22.55.22.41,0,.6-.2.68-.37.11-.22.11-.46.01-.65-.02-.05-.06-.18.2-.38.15-.12.49-.26,1.22-.26.5,0,.85.09.97.26.14.21.21.47.21.8v.46c-1.69.2-2.81.52-3.42.97-.66.49-.99,1.12-.99,1.89,0,.5.22.93.66,1.31.43.36,1.02.55,1.76.55.5,0,.91-.07,1.27-.22.26-.11.54-.26.84-.45.08.17.19.3.31.39.2.15.46.22.78.22.38,0,.69-.13.93-.4.24-.26.35-.68.35-1.28,0-.14-.11-.25-.25-.25Zm-4.54-1.18c.42-.31,1.19-.54,2.29-.69v2.27c-.32.22-.64.39-.93.5-.31.12-.63.18-.94.18-.38,0-.64-.11-.8-.33-.18-.24-.27-.5-.27-.8,0-.45.21-.83.64-1.14Z"/>
    <path class="cls-9" d="m93.64,48.09h-.29c-.1,0-.17-.02-.22-.06-.01-.01-.05-.04-.05-.15v-3.72c0-.75-.18-1.32-.53-1.69-.35-.37-.86-.56-1.5-.56-.45,0-.89.09-1.28.28-.24.11-.47.27-.7.48v-4.23c0-.14-.11-.25-.25-.25h-.11c-.07,0-.13.03-.18.07-.13.13-.26.23-.39.3-.12.06-.23.09-.35.09h-.63c-.14,0-.25.11-.25.25v.34c0,.14.11.25.25.25h.34c.18,0,.22.04.22.04.03.03.04.09.04.17v8.18c0,.08-.01.14-.04.17,0,0-.04.04-.22.04h-.29c-.14,0-.25.11-.25.25v.34c0,.14.11.25.25.25h2.4c.14,0,.25-.11.25-.25v-.34c0-.14-.11-.25-.25-.25h-.29c-.1,0-.17-.02-.22-.06-.01-.01-.05-.04-.05-.15v-3.86c.3-.39.61-.67.92-.84.67-.35,1.22-.33,1.54-.02.09.09.24.36.24,1.11v3.6c0,.08-.01.14-.04.17,0,0-.04.04-.22.04h-.29c-.14,0-.25.11-.25.25v.34c0,.14.11.25.25.25h2.4c.14,0,.25-.11.25-.25v-.34c0-.14-.11-.25-.25-.25Z"/>
    <path class="cls-9" d="m97.9,41.92c-.95,0-1.74.38-2.34,1.12-.59.73-.88,1.55-.88,2.44,0,.97.3,1.81.89,2.51.6.7,1.38,1.06,2.33,1.06s1.68-.34,2.3-1.03c.61-.67.92-1.53.92-2.54,0-.89-.29-1.71-.85-2.44-.58-.75-1.38-1.13-2.37-1.13Zm-1.24,1.52c.37-.46.78-.68,1.24-.68.5,0,.91.22,1.26.68.36.47.55,1.18.55,2.1,0,.86-.17,1.53-.5,2-.32.45-.74.67-1.31.67-.5,0-.91-.2-1.27-.62-.36-.43-.54-1.11-.54-2.04s.19-1.63.57-2.1Z"/>
    <path class="cls-9" d="m113.16,42.97c-1.34-.6-1.8-.91-1.96-1.06-.2-.2-.3-.47-.3-.82,0-.41.12-.79.36-1.15.22-.32.65-.49,1.28-.49.51,0,.93.13,1.25.38.33.26.66.77.98,1.53.05.12.2.18.32.13l.29-.11c.1-.04.17-.15.16-.26l-.23-2.34c-.01-.11-.09-.2-.2-.22-.11-.02-.22.03-.27.13-.07.14-.13.2-.16.21-.06.03-.12.05-.19.05s-.25-.02-.65-.18c-.37-.14-.77-.22-1.18-.22-.94,0-1.69.29-2.21.85-.52.56-.78,1.16-.78,1.8,0,.8.22,1.4.65,1.79.4.36,1.12.77,2.18,1.24.73.33,1.27.67,1.61,1.01.31.31.47.63.47.94,0,.66-.14,1.16-.43,1.5-.28.33-.69.48-1.27.48s-1.04-.16-1.48-.49c-.43-.33-.78-.95-1.03-1.84-.02-.07-.06-.12-.12-.15-.06-.03-.13-.04-.2-.02l-.34.11c-.12.04-.19.16-.17.28l.46,2.8c.01.09.07.16.15.19.03.01.06.02.09.02.05,0,.11-.02.15-.05.15-.11.28-.2.39-.28.07-.05.14-.07.21-.07.11,0,.31.03.68.18.35.15.74.22,1.15.22.98,0,1.75-.3,2.27-.88.52-.58.78-1.25.78-2,0-.7-.22-1.33-.66-1.85-.43-.51-1.12-.96-2.06-1.35Z"/>
    <path class="cls-9" d="m123.44,42.03h-2.4c-.14,0-.25.11-.25.25v.34c0,.14.11.25.25.25h.34c.08,0,.13.02.18.08.03.04.03.11-.02.22l-1.08,3.3-1.18-3.35c-.02-.12,0-.18,0-.21.01-.01.04-.05.15-.05h.23c.14,0,.25-.11.25-.25v-.34c0-.14-.11-.25-.25-.25h-2.4c-.14,0-.25.11-.25.25v.34c0,.14.11.25.25.25h.23c.1,0,.19.03.28.1.08.06.14.14.17.26l1.92,4.96c-.07.27-.16.53-.26.78-.11.27-.22.5-.35.73-.02.06-.04.08-.04.08-.04.02-.1.03-.16.03,0,0-.06-.02-.2-.14-.45-.39-.99-.31-1.24,0-.13.16-.2.33-.2.5,0,.28.12.5.35.64.19.12.45.18.76.18.53,0,.97-.19,1.3-.57.31-.35.56-.83.76-1.43l1.94-5.65c.06-.15.14-.26.26-.35.11-.08.21-.12.31-.12h.34c.14,0,.25-.11.25-.25v-.34c0-.14-.11-.25-.25-.25Z"/>
    <path class="cls-9" d="m129.35,45.26c-.35-.16-.73-.3-1.14-.44-.39-.13-.72-.25-1.03-.38-.28-.06-.48-.16-.57-.28-.1-.12-.15-.31-.15-.56s.1-.45.32-.59c.24-.16.59-.24,1.03-.24.4,0,.75.12,1.07.38.32.25.55.61.69,1.05.04.12.16.2.28.17l.34-.06c.13-.02.22-.14.21-.28l-.23-1.89c-.01-.09-.08-.17-.17-.21s-.19,0-.26.06c-.13.13-.2.17-.22.18-.04.02-.1.03-.17.03-.04,0-.18-.01-.56-.13-.33-.1-.68-.15-1.05-.15-.66,0-1.24.17-1.72.5-.51.35-.76.87-.76,1.52,0,.32.09.61.27.88.18.27.46.49.85.66.35.15.75.32,1.21.49.46.17.87.33,1.23.47.13.06.25.17.38.31.11.13.17.29.17.49,0,.3-.1.51-.32.65-.24.16-.61.24-1.09.24-.63,0-1.11-.14-1.44-.4-.33-.26-.55-.68-.65-1.22-.02-.13-.16-.23-.29-.2l-.34.06c-.13.02-.22.14-.21.27l.17,2.12c0,.08.05.16.13.2.07.04.16.04.23,0,.15-.07.29-.14.42-.19.1-.04.19-.07.27-.07s.24.02.51.13c.28.11.67.16,1.2.16.82,0,1.46-.18,1.9-.54.46-.37.69-.89.69-1.54,0-.36-.13-.7-.37-.99-.23-.27-.52-.49-.86-.67Z"/>
    <path class="cls-9" d="m137.89,46.68l-.29-.11c-.07-.03-.15-.02-.22.01-.07.04-.11.1-.12.18-.07.41-.2.72-.39.93-.18.2-.42.29-.73.29s-.54-.07-.68-.21c-.1-.1-.21-.33-.21-.91v-3.98h2.04c.14,0,.25-.11.25-.25v-.34c0-.14-.11-.25-.25-.25h-2.04v-1.98c0-.14-.11-.25-.25-.25h-.34c-.13,0-.23.09-.25.22l-.06.46c-.07.55-.23.95-.47,1.2-.24.24-.55.36-.94.36h-.46c-.14,0-.25.11-.25.25v.34c0,.14.11.25.25.25h1.46v3.75c0,.78.16,1.37.49,1.76.33.4.83.6,1.48.6.6,0,1.1-.2,1.47-.59.36-.38.58-.87.67-1.45.02-.11-.05-.22-.15-.27Z"/>
    <path class="cls-9" d="m142.81,41.92c-.87,0-1.62.35-2.22,1.03-.59.67-.89,1.53-.89,2.54,0,1.13.3,2.02.9,2.63.6.62,1.38.93,2.32.93.75,0,1.36-.23,1.81-.67s.71-.88.84-1.34c.03-.12-.03-.25-.15-.3l-.29-.11c-.06-.03-.13-.02-.19,0-.06.03-.11.08-.13.14-.14.38-.36.69-.67.95-.3.25-.66.37-1.1.37-.58,0-1.03-.19-1.39-.58-.32-.35-.5-.95-.53-1.78h4.38c.14,0,.25-.11.25-.25,0-1.29-.3-2.21-.88-2.76-.58-.54-1.27-.81-2.06-.81Zm1.47,2.97h-3.16c.03-.62.2-1.12.48-1.48.31-.4.71-.59,1.2-.59.45,0,.81.18,1.09.56.26.35.39.86.39,1.52Z"/>
    <path class="cls-9" d="m153.76,48.09h-.11c-.11,0-.17-.02-.19-.03,0,0-.02-.03-.02-.12v-4.35c0-.47-.1-.86-.3-1.16-.22-.34-.61-.51-1.15-.51-.31,0-.61.08-.89.23-.16.09-.31.2-.44.35-.07-.13-.17-.24-.29-.33-.23-.16-.55-.25-.94-.25-.31,0-.6.08-.87.23-.09.05-.17.11-.25.18v-.28c0-.14-.11-.25-.25-.25h-.11s-.1.01-.14.04c-.09.06-.21.1-.37.13-.17.03-.35.05-.52.05h-.17c-.14,0-.25.11-.25.25v.34c0,.14.11.25.25.25l.25-.03s.02.03.02.12v4.97c0,.08-.02.11-.01.11-.01,0-.06.04-.19.04h-.11c-.14,0-.25.11-.25.25v.34c0,.14.11.25.25.25h1.94c.14,0,.25-.11.25-.25v-.34c0-.14-.11-.25-.25-.25h-.11c-.14,0-.19-.03-.19-.03,0,0-.02-.03-.02-.12v-4.14c.1-.32.24-.56.4-.71.16-.15.34-.22.55-.22.18,0,.21.07.23.11.04.1.09.29.09.67v4.29c0,.08-.02.11-.01.11h0s-.06.04-.19.04h-.11c-.14,0-.25.11-.25.25v.34c0,.14.11.25.25.25h1.94c.14,0,.25-.11.25-.25v-.34c0-.14-.11-.25-.25-.25h-.11c-.11,0-.17-.02-.19-.03,0,0-.02-.03-.02-.12v-4.19c.1-.28.23-.5.4-.66.16-.15.34-.22.55-.22.14,0,.19.05.23.09.02.03.1.18.1.68v4.29c0,.08-.02.11-.01.11-.01,0-.06.04-.19.04h-.11c-.14,0-.25.11-.25.25v.34c0,.14.11.25.25.25h1.94c.14,0,.25-.11.25-.25v-.34c0-.14-.11-.25-.25-.25Z"/>
    <path class="cls-9" d="m167.77,38.66h-5.43c-.12,0-.22.08-.24.19l-.51,2.17c-.02.07,0,.14.03.2.04.06.1.1.17.11l.34.06c.12.02.24-.05.28-.16.38-1.04.6-1.35.7-1.44.11-.1.37-.22.95-.22.12,0,.2,0,.25,0,0,.06.01.16.01.31v8.01c0,.08-.01.14-.04.17-.01.01-.08.04-.22.04h-.51c-.14,0-.25.11-.25.25v.34c0,.14.11.25.25.25h2.97c.14,0,.25-.11.25-.25v-.34c0-.14-.11-.25-.25-.25h-.52c-.09,0-.17-.02-.22-.06-.01-.01-.05-.04-.05-.15v-7.95c0-.19,0-.3.01-.36.07,0,.2-.01.42-.01.44,0,.75.08.86.22.1.13.31.48.67,1.45.04.11.16.18.28.16l.29-.06c.07-.01.12-.05.16-.11.04-.06.05-.12.04-.19l-.46-2.17c-.02-.12-.13-.2-.24-.2Z"/>
    <path class="cls-9" d="m172.67,41.92c-.87,0-1.62.35-2.22,1.03-.59.67-.89,1.53-.89,2.54,0,1.13.3,2.01.9,2.63.6.62,1.38.93,2.32.93.75,0,1.36-.23,1.81-.67s.71-.88.84-1.34c.03-.12-.03-.25-.15-.3l-.29-.11c-.06-.03-.13-.02-.19,0-.06.03-.11.08-.13.14-.14.38-.36.69-.67.95-.3.25-.66.37-1.1.37-.58,0-1.03-.19-1.39-.58-.32-.35-.5-.95-.53-1.78h4.38c.14,0,.25-.11.25-.25,0-1.29-.3-2.21-.88-2.76-.58-.54-1.27-.81-2.06-.81Zm1.47,2.97h-3.16c.03-.62.2-1.12.48-1.48.31-.4.71-.59,1.2-.59.45,0,.81.18,1.09.56.26.35.39.86.39,1.52Z"/>
    <path class="cls-9" d="m182.85,46.51l-.29-.11c-.06-.03-.14-.02-.2,0-.06.03-.11.08-.13.15-.14.42-.38.79-.71,1.1-.32.3-.7.45-1.17.45-.72,0-1.21-.22-1.51-.66-.31-.47-.47-1.11-.47-1.89,0-.86.19-1.55.55-2.05.35-.49.77-.73,1.26-.73.38,0,.65.08.79.23.14.16.18.27.18.29-.03.1-.06.16-.07.19-.04.08-.06.18-.06.34,0,.22.07.41.22.55.14.14.33.22.55.22.26,0,.46-.07.61-.22.14-.14.22-.37.22-.66,0-.41-.21-.82-.62-1.21-.41-.39-.98-.58-1.69-.58-.98,0-1.8.34-2.42,1.03-.61.67-.92,1.53-.92,2.54,0,1.13.29,2.01.87,2.63.58.62,1.37.94,2.36.94.79,0,1.42-.23,1.89-.67.45-.43.76-.96.93-1.57.03-.12-.03-.25-.15-.3Z"/>
    <path class="cls-9" d="m190.68,48.09h-.29c-.09,0-.17-.02-.22-.06-.01-.01-.05-.04-.05-.15v-3.72c0-.75-.18-1.32-.53-1.69-.35-.37-.86-.56-1.5-.56-.45,0-.88.09-1.28.28-.24.11-.47.27-.7.48v-4.23c0-.14-.11-.25-.25-.25h-.11c-.07,0-.13.03-.18.07-.13.13-.26.23-.39.3-.12.06-.23.09-.35.09h-.63c-.14,0-.25.11-.25.25v.34c0,.14.11.25.25.25h.34c.14,0,.21.03.22.04.03.03.04.09.04.17v8.18c0,.08-.02.14-.04.17,0,0-.04.04-.22.04h-.29c-.14,0-.25.11-.25.25v.34c0,.14.11.25.25.25h2.4c.14,0,.25-.11.25-.25v-.34c0-.14-.11-.25-.25-.25h-.29c-.1,0-.17-.02-.22-.06-.01-.01-.05-.04-.05-.15v-3.86c.3-.39.61-.67.92-.84.67-.35,1.22-.33,1.54-.02.09.09.24.35.24,1.11v3.6c0,.08-.01.14-.04.17,0,0-.04.04-.22.04h-.29c-.14,0-.25.11-.25.25v.34c0,.14.11.25.25.25h2.4c.14,0,.25-.11.25-.25v-.34c0-.14-.11-.25-.25-.25Z"/>
    <path class="cls-9" d="m198.15,48.09h-.29c-.09,0-.17-.02-.22-.06-.01-.01-.05-.04-.05-.15v-3.66c0-.75-.18-1.32-.52-1.71-.35-.4-.9-.6-1.62-.6-.42,0-.83.11-1.21.32-.22.12-.44.28-.66.47v-.71c0-.14-.11-.25-.25-.25h-.11c-.05,0-.11.02-.15.05-.12.09-.26.16-.39.18-.15.03-.31.05-.49.05h-.4c-.14,0-.25.11-.25.25v.34c0,.14.11.25.25.25l.48-.03s.02.03.02.12v4.92c0,.08-.01.14-.04.17,0,0-.04.04-.22.04h-.29c-.14,0-.25.11-.25.25v.34c0,.14.11.25.25.25h2.4c.14,0,.25-.11.25-.25v-.34c0-.14-.11-.25-.25-.25h-.29c-.1,0-.17-.02-.22-.06-.01-.01-.05-.04-.05-.15v-3.86c.27-.36.57-.65.88-.84.65-.41,1.3-.39,1.58-.03.16.2.23.51.23.91v3.83c0,.08-.01.14-.04.17,0,0-.04.04-.22.04h-.29c-.14,0-.25.11-.25.25v.34c0,.14.11.25.25.25h2.4c.14,0,.25-.11.25-.25v-.34c0-.14-.11-.25-.25-.25Z"/>
    <path class="cls-9" d="m202.41,41.92c-.95,0-1.74.38-2.34,1.12-.59.73-.88,1.55-.88,2.44,0,.97.3,1.82.89,2.51.6.7,1.38,1.06,2.33,1.06s1.68-.34,2.3-1.03c.61-.67.92-1.53.92-2.54,0-.89-.29-1.71-.85-2.44-.58-.75-1.38-1.13-2.37-1.13Zm-1.24,1.52c.37-.46.78-.68,1.24-.68.49,0,.91.22,1.26.68.36.47.55,1.18.55,2.1,0,.86-.17,1.53-.5,2-.32.45-.75.67-1.31.67-.5,0-.91-.2-1.27-.62-.36-.43-.54-1.12-.54-2.04s.19-1.63.57-2.1Z"/>
    <path class="cls-9" d="m212.11,48.09h-1.31c-.1,0-.17-.02-.22-.06-.01-.01-.05-.04-.05-.15v-9.44c0-.14-.11-.25-.25-.25h-.11s-.09.01-.12.03c-.25.14-.51.25-.79.32-.28.07-.59.11-.91.11h-.63c-.14,0-.25.11-.25.25v.34c0,.14.11.25.25.25h1.26c.18,0,.22.04.22.04h0s.04.09.04.17v8.18c0,.08-.01.14-.04.17,0,0-.04.04-.22.04h-1.31c-.14,0-.25.11-.25.25v.34c0,.14.11.25.25.25h4.46c.14,0,.25-.11.25-.25v-.34c0-.14-.11-.25-.25-.25Z"/>
    <path class="cls-9" d="m219.71,43.05c-.58-.75-1.38-1.13-2.37-1.13s-1.74.38-2.34,1.12c-.59.73-.88,1.55-.88,2.44,0,.97.3,1.82.89,2.51.6.7,1.38,1.06,2.33,1.06s1.68-.34,2.3-1.03c.61-.67.92-1.53.92-2.54,0-.89-.29-1.71-.85-2.44h0Zm-3.61.4h0c.37-.46.78-.68,1.24-.68.5,0,.91.22,1.26.68.36.47.55,1.18.55,2.1,0,.86-.17,1.53-.5,2-.32.45-.75.67-1.31.67-.5,0-.91-.2-1.27-.62-.36-.43-.54-1.11-.54-2.04s.19-1.63.57-2.1Z"/>
    <path class="cls-9" d="m227.5,41.92c-.19,0-.4.05-.65.17-.18.08-.38.2-.59.34-.19-.15-.42-.26-.67-.33-.31-.08-.63-.12-.95-.12-.79,0-1.42.25-1.87.74-.44.48-.67,1.05-.67,1.68,0,.35.1.69.3.99.12.18.25.35.4.51-.13.09-.25.19-.35.31-.19.22-.29.48-.29.77,0,.26.09.48.27.66.06.06.12.11.19.16-.25.14-.44.31-.59.51-.22.31-.33.63-.33.95,0,.51.29.95.86,1.32.53.35,1.23.53,2.08.53,1.09,0,1.88-.18,2.4-.56.54-.39.82-.92.82-1.57,0-.49-.16-.89-.48-1.18-.31-.29-.76-.47-1.4-.55-.3-.04-.65-.09-1.05-.14-.4-.06-.85-.12-1.38-.2-.08,0-.14-.01-.17-.04-.03-.03-.04-.09-.04-.17,0,0,0-.04.07-.15.03-.05.08-.09.14-.13.11.06.24.11.39.15.21.06.45.1.7.1.87,0,1.53-.25,1.94-.75.4-.48.6-.99.6-1.5,0-.29-.04-.58-.12-.87-.05-.19-.13-.35-.22-.5.03-.02.06-.03.08-.04.05.16.14.29.26.38.12.09.27.14.44.14.31,0,.46-.14.53-.26.08-.13.12-.3.12-.5,0-.16-.05-.32-.15-.5-.09-.15-.26-.33-.62-.33Zm-4.55,7.34c0-.26.05-.47.16-.64.1-.15.28-.29.54-.42.47.07.92.13,1.36.19h0c.44.06.86.12,1.24.2.12.02.21.08.27.17.07.11.11.28.11.5,0,.33-.14.56-.44.72-.34.19-.82.28-1.42.28s-1.09-.12-1.39-.35c-.28-.22-.42-.44-.42-.66Zm.81-6.08c.24-.24.53-.36.88-.36s.64.12.88.36c.24.24.36.65.36,1.22,0,.47-.1.83-.31,1.07-.2.23-.5.34-.93.34-.38,0-.68-.13-.89-.4-.23-.28-.34-.61-.34-1.01,0-.58.12-.99.36-1.22Z"/>
    <path class="cls-9" d="m235.42,42.03h-2.4c-.14,0-.25.11-.25.25v.34c0,.14.11.25.25.25h.34c.08,0,.13.02.18.08.03.04.03.11-.02.22l-1.08,3.3-1.18-3.35c-.02-.12,0-.18,0-.21.01-.01.04-.05.15-.05h.23c.14,0,.25-.11.25-.25v-.34c0-.14-.11-.25-.25-.25h-2.4c-.14,0-.25.11-.25.25v.34c0,.14.11.25.25.25h.23c.1,0,.19.03.28.1.08.06.14.14.17.26l1.92,4.96c-.07.27-.16.53-.26.78-.11.27-.22.5-.35.73-.02.06-.04.08-.04.08-.04.02-.1.03-.16.03,0,0-.06-.02-.2-.14-.45-.39-.99-.31-1.24,0-.13.16-.2.33-.2.5,0,.28.12.5.35.64.19.12.45.18.76.18.53,0,.97-.19,1.3-.57.31-.35.56-.83.76-1.43l1.94-5.65c.06-.15.14-.26.26-.35.11-.08.21-.12.31-.12h.34c.14,0,.25-.11.25-.25v-.34c0-.14-.11-.25-.25-.25Z"/>
  </g>
  <path class="cls-3" d="m53.45,25.22l-8.22-8.22h0s-1.06-1.06-1.06-1.06l-6.54-6.54-.06-.07-.03-.03-.03-.03c-.07-.07-.13-.12-.18-.17l-2.43-2.43c-3.64-3.64-8.48-5.65-13.62-5.65S11.27,3.01,7.63,6.65c-7.51,7.51-7.51,19.74,0,27.25l8.22,8.22h0s1.06,1.06,1.06,1.06l6.26,6.26.31.31.04.04.02.02,2.66,2.65c3.64,3.64,8.48,5.65,13.62,5.65s9.99-2.01,13.62-5.65c3.64-3.64,5.64-8.48,5.64-13.62s-2-9.99-5.64-13.62Z"/>
  <g>
    <path class="cls-10" d="m36.75,10.43c-.13-.13-.28-.27-.42-.4-2.51-2.37-5.74-3.54-8.96-3.54s-6.73,1.28-9.29,3.85c-1.21,1.21-2.14,2.6-2.77,4.08-2.08,4.8-1.15,10.58,2.77,14.5l5.74,5.74.93.93-6.55,6.55-9.28-9.28C1.97,25.9,1.97,14.65,8.9,7.71,15.84.76,27.09.76,34.03,7.71l2.72,2.72Z"/>
    <path class="cls-3" d="m36.75,10.43c-.13-.13-.28-.27-.42-.4.05.04.12.1.17.15.05.04.11.1.16.15l.09.1Z"/>
    <g>
      <path class="cls-5" d="m24.75,48.69c.13.13.28.27.42.4,2.51,2.37,5.74,3.54,8.96,3.54s6.73-1.28,9.29-3.85c1.21-1.21,2.14-2.6,2.77-4.08,2.07-4.8,1.15-10.58-2.77-14.5l-5.74-5.74-.93-.93,6.55-6.55,9.28,9.28c6.94,6.94,6.94,18.19,0,25.13-6.94,6.95-18.19,6.95-25.12,0l-2.72-2.72Z"/>
      <path class="cls-2" d="m17.62,18.35c0-2.23.66-4.46,1.99-6.37h0c.38-.55.81-1.07,1.29-1.55,4.36-4.36,11.42-4.38,15.79-.05,0,0,.02.01.02.02l.03.03,6.57,6.57-6.55,6.55-4.85-4.85c-.13-.13-.13-.33,0-.46l1.6-1.6c.15-.15.06-.4-.15-.43l-6.99-.88c-.33-.04-.6.24-.56.56l.87,7c.03.21.28.3.43.15l1.6-1.6c.13-.13.34-.13.46,0l11.42,11.42c2.19,2.19,3.28,5.05,3.28,7.92,0,2.23-.66,4.46-1.99,6.37-.38.54-.81,1.07-1.3,1.55-4.37,4.37-11.47,4.37-15.84,0l-.31-.31-6.26-6.26,6.55-6.55,4.85,4.85c.13.13.13.33,0,.46l-1.61,1.6c-.15.15-.06.4.15.43l7,.87c.33.04.6-.24.56-.56l-.88-6.99c-.03-.21-.28-.3-.43-.15l-1.6,1.6c-.13.13-.33.13-.46,0l-4.85-4.85-6.57-6.57c-2.18-2.19-3.28-5.05-3.28-7.92Z"/>
    </g>
  </g>
</svg>