<?xml version="1.0" encoding="UTF-8"?>
<svg id="_圖層_1" data-name="圖層 1" xmlns="http://www.w3.org/2000/svg" viewBox="0 0 101.52 101.56">
  <defs>
    <style>
      .cls-1 {
        fill: #042d84;
      }

      .cls-2 {
        fill: #fff;
      }

      .cls-3 {
        fill: #77c0eb;
      }

      .cls-4 {
        fill: #939494;
      }
    </style>
  </defs>
  <path class="cls-4" d="m62.01,14.88c-.25-.25-.52-.5-.79-.75-4.71-4.45-10.78-6.65-16.81-6.65s-12.62,2.41-17.44,7.22c-2.27,2.27-4.01,4.88-5.2,7.66-3.9,9.01-2.16,19.86,5.2,27.21l10.76,10.76,1.74,1.74-12.3,12.29-17.42-17.42C-3.25,43.91-3.25,22.8,9.76,9.78c13.02-13.04,34.13-13.04,47.15,0l5.1,5.1Z"/>
  <path class="cls-2" d="m62.01,14.88c-.25-.25-.52-.5-.79-.75.1.08.22.18.32.29.1.08.2.18.3.28l.17.19Z"/>
  <g>
    <path class="cls-3" d="m39.51,86.68c.25.25.52.5.79.75,4.71,4.45,10.78,6.65,16.81,6.65s12.62-2.41,17.43-7.22c2.27-2.28,4.01-4.88,5.2-7.66,3.89-9.01,2.16-19.86-5.2-27.21l-10.76-10.76-1.74-1.74,12.3-12.28,17.42,17.41c13.02,13.02,13.02,34.13,0,47.15-13.02,13.04-34.13,13.04-47.15,0l-5.1-5.1Z"/>
    <path class="cls-1" d="m26.13,29.74c0-4.18,1.24-8.37,3.73-11.95h0c.71-1.03,1.52-2,2.43-2.91,8.18-8.18,21.42-8.21,29.64-.09.01,0,.03.02.04.03l.06.06,12.32,12.33-12.3,12.3-9.11-9.11c-.24-.24-.24-.62,0-.86l3.01-3.01c.28-.28.11-.76-.28-.81l-13.12-1.65c-.61-.08-1.14.45-1.06,1.06l1.64,13.13c.05.39.53.56.81.28l3.01-3.01c.24-.24.63-.24.87,0l21.43,21.43c4.11,4.1,6.16,9.48,6.16,14.87,0,4.18-1.24,8.36-3.73,11.95-.71,1.02-1.52,2-2.43,2.91-8.21,8.21-21.52,8.21-29.73,0l-.58-.58-11.75-11.75,12.3-12.3,9.11,9.1c.24.24.24.63,0,.87l-3.01,3.01c-.28.28-.11.76.28.8l13.13,1.64c.61.08,1.14-.44,1.06-1.06l-1.65-13.12c-.05-.39-.53-.56-.8-.27l-3.01,3.01c-.24.24-.62.24-.86,0l-9.11-9.11-12.33-12.33c-4.1-4.11-6.15-9.48-6.15-14.87Z"/>
  </g>
</svg>